<svg xmlns="http://www.w3.org/2000/svg" viewBox="0 0 32 32" role="img" aria-label="Airbnb icon">
  <path fill="#ff385c" d="M16 2C13 2 10.8 3.9 9.4 6.8 7.9 9.8 6.6 13 4.8 16.8c-1 2.1-1.4 4.1-1.1 5.9.4 2.2 1.8 4 4.2 5 2 .8 4.1.7 6-.3 1.5-.8 2.6-2 3.1-3.6.5 1.6 1.6 2.8 3.1 3.6 1.9 1 4 .9 6 .3 2.4-1 3.8-2.8 4.2-5 .3-1.8-.1-3.8-1.1-5.9-1.8-3.8-3.1-7-4.6-10C21.2 3.9 19 2 16 2zm0 4c1.4 0 2.6.9 3.8 3.4 1.3 2.8 2.5 5.7 4.2 9.2.6 1.4.9 2.5.7 3.4-.2 1-.8 1.7-1.8 2.1-.9.3-1.8.3-2.6-.1-1.2-.7-1.9-1.8-1.9-3.3v-5.1c0-1.3-1-2.3-2.3-2.3s-2.3 1-2.3 2.3v5.1c0 1.5-.7 2.6-1.9 3.3-.8.4-1.7.4-2.6.1-1-.4-1.6-1.1-1.8-2.1-.2-.9.1-2 .7-3.4 1.7-3.5 2.9-6.4 4.2-9.2C13.4 6.9 14.6 6 16 6z"/>
</svg>
